<?xml version="1.0" encoding="UTF-8"?>
<svg xmlns="http://www.w3.org/2000/svg" viewBox="0 0 87.61 122.36">
  <defs>
    <style>
      .cls-1 {
        fill: #9eb2af;
      }

      .cls-2 {
        fill: #c2dcd7;
      }

      .cls-3 {
        fill: #8c9896;
      }

      .cls-4 {
        fill: #838c87;
      }

      .cls-5 {
        fill: #48504e;
      }

      .cls-6 {
        fill: #b5cbc6;
      }

      .cls-7 {
        fill: #535f5c;
      }

      .cls-8 {
        fill: #788280;
      }

      .cls-9 {
        fill: #64716d;
      }
    </style>
  </defs>
  <g>
    <g id="_思考者小雕塑">
      <polygon class="cls-5" points="28.73 12.86 24.95 .61 28.68 4 30.12 9.3 29.89 14.21 28.73 12.86"/>
      <path class="cls-5" d="M72.08,91.73c-.12-5.64,5.98-4.5,5.03-10.26l-2.81-14.33c-1.25-.16-12.22-2.71-12.9-3.79-.1-.15.66-6.57.3-4.81,1.03-5.11-1.59-9.09-2.19-14.12-1.19-9.98-4.76-21.61-7.61-27.31-4.3-8.59-13.78-1.75-20.77-4.22C26.66,11.33,29.26.32,22.74.2,15.13.06,12.26,2.62,9.31,9.06c-1.71,3.75,2.95,6.19,4.23,8.77-.44-.88,4.1,4.53,2.9,5l-1.98,8.83,5.03,8.76,3.51,10.2-7.66,3.36c-.43-.56,20.44-5.86,20.28-6.39-.28-.94-3.65.31-4.71.65,2.06-.73,14.1-3.21,14.57-4.18.67-1.39-1.06-7.69-1.1-9.83.36.26,1.06,1.78,1.79,1.33.78-.48-1.31-4.84-1.45-5.58-.58-3.15,8.79-3.21,9.65-6.68-.16,1.81-1.58,5.77-2.97,8.13-2.23,3.8-.02,15.47-4.83,16.13,1.11-.65-6.93.12-8.14,1.03.73.96,1.81.95,3.25,0-3.5,1.07-19.12,10.27-22.43,8.77-3.18-1.44,2.16-7.72-5.42-.97-.72.64.45-1.12-.2-.94-3.68,3.01-12.04,2.35-13.14,8.39-.82,4.49,5.16,9.76,7.82,12.93,4.48,5.33,10.98,8.1,15.83,12.97,2.23,2.24,2.8,4.81,2.52,7.87-.12,1.29-2.86,6.64-2.33,7.64.54,1.03-2.8,4.85-.37,5.24,3.33.52,6.09.24,9.45.18,6.25-.12,12.98.05,19.23.17,7.2.14,14.71.59,21.82.16,9.24-.55-1.52-8.47-1.66-15.02-.06-3.09-.62.63-.72-4.24ZM30.83,48.28s.02,0,.02,0c0,0-.02,0-.02,0ZM34.42,89.22c-1.75-1.53-15.87-19.64-15.56-20.09,1.44-2.1,11.83,4.77,12.66,5.53,3.3,3,2.98,10.19,2.89,14.56-2.4-2.1.03-1.7,0,0Z"/>
      <path class="cls-4" d="M13.79,55.61c-.7-.6-.18-1.14,1.56-1.62.53.6.01,1.14-1.56,1.62-.06-.06.81-.24,0,0Z"/>
      <path class="cls-4" d="M47.69,101.43c-.27.26-4.12,1.97-3.89,2.28-.66-.88,1.63-1.79,1.35-2.56-.62-1.67-2.53,2.88-2.67,2.86-.43-1.08-.16-2.1.82-3.07-1.68.34-1.47,3.55-2.86,3.31-1.17-.2,1.4-2.94.98-3.57-1-1.52-2.67,3.88-3.48,3.96-.88.09,5.57-8.5,6.86-8.91,1.33-.42,1.75-8.5,2.33-10.53.73,1.85-.77,6.55-1.15,8.2,1.23-.93,1.01-3.9,3.51-2.75,1.72.79-2.66,3.45-2.73,3.84-.3,1.64,1.8.21,1.96.1-.43,3.51-.82,2.77.42,4.03,0,1.11-.48,2.05-1.45,2.82-.4.39.45-.7,0,0Z"/>
      <path class="cls-4" d="M64.61,65.46c-2.82,1.05-5.83.53-8.74.96.55,0,.97.21,1.27.62-2.94.78-5.9.83-8.87.14,12.35,1.83-2.21,6.54-.95,1.21-1.65,1.6-4.32.04-4.78-1.78.23.92,19.41-2.35,22.06-1.15-2.85,1.06-.95-.43,0,0Z"/>
      <path class="cls-4" d="M28.51,91.24c1.03,1.2,3.45,2.86,3.88-.33,1.07,2.21.56,13.15-.86,14.84-2.69-3.65-3.34-.64-3.02-6.3.27-4.83.2-7.64-2.41-11.72,1.03.62,4.13,3.77,5,1.64,2.29,2.45-1.49,2.08-2.59,1.86.54.63,1.07.21,0,0Z"/>
      <path class="cls-4" d="M30.32,108.19c-1.18.13-1.96-2.78-2.55-2.54-.24.55-.23,1.11.01,1.69-2.77-2.72,2.85-3.82,2.73.45,1.14.67,2.34-7.34,2.62-8.02,1.58-3.75,3.03-2.74,5.74-4.12-1.89,3.63-7.06,8.23-6.27,12.72.93,5.32-10.74-1.11-7.4-1.51,1.71-.2,2.44,3.08,5.12,1.33-.98.11-.63.41,0,0Z"/>
      <path class="cls-4" d="M39.87,108.16c2.58,1.81-6.19,2.22-6.02.17.08-1.01,5.64-2.01,6.19-2.17,5.99-1.75,9.99-4.64,15.23-7.86-.2.31-2.74,5.15-3.18,5.33-1.68.68-12.01,2.72-12.22,4.53.24.17.03-.28,0,0Z"/>
      <path class="cls-4" d="M10.26,58.27c-.83,1.17.06,3.25-.98,4.23-1.76,1.66-4.54-1.41-5.16-1.04-2.12,1.29,3,7.21-.01,7.48-1.62.14-1.01-5.15-1.35-5.66-1.88-2.74,4.66-4.43,7.51-5.01-.72,1.03-.36.07,0,0Z"/>
      <path class="cls-4" d="M71.31,101.77s-2.08,3.8-.04,3.16c-2.42.77,5.92-.83,4.29-1.4-.15,1.94-1.3,2.75-2.48,4.08.2-.23,3.14.72,3.12.7-.5,8.81-14.05-6.49-4.89-6.54,0,.57-.2,0,0,0Z"/>
      <path class="cls-4" d="M55.03,76c-.49.35-1.81,2.68-2.36.59-.39-1.46,4.15-.76,4.11-1.93-.03-1.1-4.45-.16-4.21-2.05.11-.83,2.43,0,2.58-.95-.39-.31-.68-.69-.86-1.16.44-.89,3.9,2.46,3.36,3.61-.52,1.1,1.82,2.23-.43,2.55-1.65.24-2.21,1.48-2.21-.67-.44.31,0,.31,0,0Z"/>
      <path class="cls-4" d="M54.36,33.35c-.26.77-.53,1.53-.79,2.3.06-.63,1.03-5.14,2.56-5.01,1.94.16-2.3,9.61-3.09,10.42-.17-2.81,2.06-4.81,1.33-7.71-.45.74.34,1.34,0,0Z"/>
      <path class="cls-4" d="M41.97,78.15c-1.07-.62-12.43-10.34-12.14-10.85.73-1.27,12.14,9.02,12.14,10.85-2.23-1.31,0-.38,0,0Z"/>
      <path class="cls-4" d="M9.81,72.36c3.41,2.5,6.29,5.66,7.99,9.57-2.42-2.56-7.82-5.66-7.99-9.57,3.47,2.54.06,1.33,0,0Z"/>
      <path class="cls-4" d="M58.21,33.79c.32,1.15-2.58,11.12-3.93,10.12-.24-.18,2.54-9.5,3.93-10.12.34,1.22-.35.16,0,0Z"/>
      <path class="cls-4" d="M30.99,54.51c4.37-1.89,9.73-3.14,14.33-4.65-.9.7-14.52,6.59-14.33,4.65,1.3-.56-.03.29,0,0Z"/>
      <path class="cls-4" d="M38.66,98.92c1.02.99-3.52,5.51-3.3,5.67-1.98-1.43,2-6.93,3.3-5.67.53.51-.12-.12,0,0Z"/>
      <path class="cls-4" d="M48.03,82.36c.2.25,6.18,5.85,2.69,6.19-.75.07-2.48-5.82-2.69-6.19,1.06,1.36.54.94,0,0Z"/>
      <path class="cls-4" d="M38.66,98.92c1.29.12,2.96-4.14,3.42-5.98,1.77-6.94.34-8.48-4.73-13.32.41,2.41,7.26,3.36,6.38,7.47-.91,4.24-.98,9.41-5.07,11.82-.13-.01.45-.27,0,0Z"/>
      <g>
        <path class="cls-4" d="M58.39,47.88c.62-.94-.02-.51-.89.26.52-.17.85-.27.89-.26Z"/>
        <path class="cls-4" d="M60.8,60.94s0-.04.01-.06c0,0-.01,0-.02,0-.42-2.79-5.67-8.5-4.7-9.02,1.09-.15,1.97-.62,2.65-1.41-.24-1.13-3.4,1.15-3.58.11-.03-.14,1.32-1.52,2.35-2.42-2.48.81-9.28,3.19-9.27,2.69-.02.82,3.98-.64,4.08.17.07.58-20.15,5.61-21.42,5.71-1.39.12-12.87,4.92-11.39,8.37-.48.32-.95.92-1.03,1.11-.01-.94,2.81-8.78,3.52-7.97-.99-1.13-4.49,3.36-4.7,3.81-.09-.13.06-.49.19-.7.57-1.33,1.94-4.04-1.27-4.41-.2-.02-4.43,3.24-3.87,3.77.87.82,3.29-.36,3.92-1.16-2.29,3.17.52,2.85.32,5.86-.13,1.96,2.66,1.39,3.63.58.4.32.95.61,1.67.88.04-.55,2.17-6.01,4.16-4.76.53.33-.63,1.67-.04,2.12,1.33,1.01,7.93-4.85,3.11.69,2.9,1.55,5.36,4.06,8.37,5.36-.98-1.78-2.21-3.37-3.68-4.77,3.7,2.18,5.38,6.26,8.1,9.37-.33-1.5-2.12-7.78-4.11-10.43,2.59,1.8,4.02,3.98,5.96,6.94.1-1.98-2.16-5.29-4.5-7.32,6.04,2.19,17.42,1.51,20.69-1.73.7-.19.92-.69.83-1.38Z"/>
        <path class="cls-4" d="M17.31,62.04c.47-.98.35-.96.19-.7-.15.35-.25.61-.19.7Z"/>
      </g>
      <path class="cls-4" d="M40.39,31.9c-.6,3.84-.34,6.66.76,10.46.44,1.52-6.8,2.04-6.98,3.25.56-.39,6.57-3.11,6.49-3.51-.23-1.1-.82-10.77-.27-10.21-.23,1.46-.05-.05,0,0Z"/>
      <path class="cls-4" d="M57.46,46.8c2.01.54-6.68,3.78-6.86,2.71-.1-.6,6.36-2.66,6.86-2.71.16.04-.04,0,0,0Z"/>
      <path class="cls-4" d="M47.69,101.43c0-.46,1.72-2.35,1.35-2.7.36.34-2.44.56-1.33-.29.31,1.49,5.94-5.76,6.39-6.25-.91,2.08-4.37,8.47-6.41,9.25.01-.88.27-.1,0,0Z"/>
      <path class="cls-4" d="M52.31,34.97c-.18,2.24.3,5.71-1.52,7.45-.23-2.63.28-5.12,1.52-7.45-.16,1.94-1.57,2.36,0,0Z"/>
      <path class="cls-4" d="M51.29,47.75c.17-.01,6.33-4.94,6.68-4.6,1.73,1.62-7.15,4.76-6.68,4.6-.09,0,.1-.03,0,0Z"/>
      <path class="cls-4" d="M40.39,31.9c1.72.08-1.08-11.97.94-13.54.61,3.31.39,9.75-.94,13.54-.05,0,.43-1.21,0,0Z"/>
      <path class="cls-4" d="M12.86,62.1c1.15.28,1.11,4.22.27,3.79-1.17-1.07-1.26-2.34-.27-3.79.83.2-.21.83,0,0Z"/>
      <path class="cls-4" d="M54.64,91.14c-.18-1.94-.4-3.21-1.04-4.94,1.42,1.55,2.76,3.08,1.04,4.94-.08-.81,1.46-1.57,0,0Z"/>
      <path class="cls-4" d="M33.88,93.49c.6,1.81.28,3.37-.96,4.69-.56-1.74-.24-3.31.96-4.69-.27,1.1-1.46,1.43,0,0Z"/>
      <path class="cls-4" d="M10.77,60.56c.83.47,1.28,3.79.19,4.06-1.44.36-.2-4.82-.19-4.06.9.51,0,.9,0,0Z"/>
      <path class="cls-4" d="M69.35,106.7c1.25,2.35-1.16-.5-2.27.8-.84-5.56,2.8-.76,1.69-.84.42.03-1.77-1.59-1.38-.26.08.26,1.83.28,1.96.3.19.36-.33-.05,0,0Z"/>
      <path class="cls-4" d="M17.23,72.93c-1.27-.96-2.32-2.15-3.59-3.36,2.19.23,2.76,1.94,3.59,3.36Z"/>
      <path class="cls-4" d="M49.59,94.84c.9-1.58,1.63-3.88,3.69-4.6-.24.32-3.35,4.8-3.69,4.6.39-.69.06.03,0,0Z"/>
      <path class="cls-4" d="M14.55,65.73c-.11-.95.18-1.59.85-1.94,3.33,1.33-1.59,3.86-.85,1.94.03-.66-.06.15,0,0Z"/>
      <path class="cls-4" d="M7.17,72.73c-1.27-.69-1.59-1.5-.96-2.43.97.41,1.29,1.22.96,2.43-.62-.45-.13-.65,0,0Z"/>
      <path class="cls-4" d="M24.32,33.32c-1.56,0-.06-3.07.46-4.29-.24.05-.73,3.85-.46,4.29-.23,0-.44-.73,0,0Z"/>
      <path class="cls-4" d="M25.99,102.33c-.23.92-.62,1.78-.59,2.8-.63-.59-.4-1.58.59-2.8Z"/>
      <path class="cls-4" d="M28.38,65.79c.76.29.72.64-.12,1.08-.58-.37-.54-.73.12-1.08.33,0-.39-.06,0,0Z"/>
      <path class="cls-4" d="M34.17,45.61c1.11.85.07,1.46-3.12,1.82,1.04-.61,2.08-1.21,3.12-1.82.05.04-1.04.61,0,0Z"/>
      <path class="cls-4" d="M37.51,79.48c-.86.89-1.76.24-2.7-1.95.9.65,1.8,1.3,2.7,1.95-.05.05-.78-.81,0,0Z"/>
      <path class="cls-4" d="M35.06,95.31c-.09-.79-.19-1.59-.28-2.38,1.14,1.54,1.23,2.33.28,2.38-.09-.79.07,0,0,0Z"/>
      <path class="cls-4" d="M67.69,107.75c.54.19.82.56.84,1.11-.52,1.39-.91-1.33-.84-1.11.37.48.18.57,0,0Z"/>
      <path class="cls-4" d="M16.89,22c-.39-.41-.43-.89-.4-1.4q.62.24.4,1.4Z"/>
      <path class="cls-4" d="M59.41,90.07c-.3-.49-.97-.6-1.29-1.19.77.13,1.01.36,1.29,1.19Z"/>
      <path class="cls-4" d="M59.5,67.11c.81-.06,1.45-.1,2.1-.14-.64.15-1.24.69-2.1.14Z"/>
      <g>
        <path class="cls-4" d="M26.9,27.58s0,0,0,0c0,0,0,0,0,0Z"/>
        <path class="cls-4" d="M22.78,36.9c-.07-.22-.15-.43-.23-.64.07.15.15.36.25.62,0,0-.02.02-.02.02Z"/>
      </g>
      <path class="cls-4" d="M28.47,53.72c-.92-1.22,2.02-.35,0,0-.32-.43.09-.02,0,0Z"/>
      <path class="cls-4" d="M75.41,105.77c-.05.05-1.02,1.07-1.13.3.5-.99.87-1.09,1.13-.3-.17.15-.25-.07,0,0Z"/>
      <path class="cls-4" d="M69.39,108.7c.13,1.12-.01-1.37,0,0,.03.25,0-.21,0,0Z"/>
      <path class="cls-4" d="M30.99,54.51c.28.97-3.18.66,0,0,.05.16-.43.09,0,0Z"/>
      <path class="cls-4" d="M38.79,48.78l-1.56.43c.53-.64,1.05-.79,1.56-.43-.48.28-.1-.05,0,0Z"/>
      <path class="cls-4" d="M31.34,48c.84.45-2.29,1.06,0,0,.1.05-.27.13,0,0Z"/>
      <path class="cls-4" d="M45.14,12.71c.31-1.02,2.15-.65,0,0,.12-.41.37-.11,0,0Z"/>
      <path class="cls-4" d="M65.43,98.14c-1.48-4.16,4.45-13.91,2.89-16.17-2.24-3.24-1.12-9.47-2.15-13.23,3.09,1.28,5.25,4.93,4.56,8.27-.12-.24-1.57-3.81-1.95-4.19-1.4,3.19,1.8,7.04.94,10.32-1.21,4.64-1.11,11.14-4.28,14.99-.13-.37.57-.69,0,0Z"/>
      <path class="cls-4" d="M69.16,105.07c-.88-.03-1.66.18-2.34.65.13-4.45,5.14-12.49,6.67-17-.2,6.5-1.76,10.7-4.33,16.35-.78-.59.55-1.21,0,0Z"/>
      <path class="cls-4" d="M71.71,72.89c1.43,2.64,2.12,11.15,1.49,14.05,0-5.57-3.07-8.24-1.49-14.05.55,1.01-.08.31,0,0Z"/>
      <path class="cls-4" d="M62.87,87.31c-.21-.47-4.73-6.85-4.09-7.03,2.32-.66,4.33,5.64,4.09,7.03-.3-.67.19-1.1,0,0Z"/>
      <path class="cls-4" d="M62.97,104.78c1.09.66,2.87.63,3.16,1.85-1.23,1.33-2.89,1.51-4.97.54,0-.13,1.69-2.42,1.81-2.39.11.07-.12-.03,0,0Z"/>
      <path class="cls-4" d="M62.97,104.78c-2.35,1.44,1.43-4.54,2.05-5.38-.64,2.04-.91,3.48-2.05,5.38-.06.04.24-.4,0,0Z"/>
      <path class="cls-4" d="M68.55,102.88c-.61,2.4-1.35,2.94-2.22,1.62.06-.53,1.87-1.57,2.22-1.62-.29.93-.57.08,0,0Z"/>
      <path class="cls-4" d="M62.02,104.49c-.08,1.45,1.47,0-.45,2.24-.31-.79-.16-1.54.45-2.24-.04.7-.23.47,0,0Z"/>
      <path class="cls-4" d="M61.41,105.93c.81.62-.29,1.26-.68,1.44l.68-1.44c.28.22-.21.45,0,0Z"/>
      <path class="cls-4" d="M48.56,38.22c.59,2.8.72,7.02-2.39,7.72,1.41-2.63,2.2-4.02,2.39-7.72.23,1.09-.06,1.17,0,0Z"/>
      <path class="cls-4" d="M22.85,36.83c-.79.8-.29-2.78,0,0-.05.05-.03-.33,0,0Z"/>
      <path class="cls-4" d="M30.44,95.01c.57.32.41,7.4.41,8.41-1.89-1-.83-6.95-.41-8.41.29.17-.82,2.78,0,0Z"/>
      <path class="cls-4" d="M22.54,53.23s-4.32,1.08-2.74-1.16c.52-.74,5.65-1.46,6.99-1.38-.06.04-4.4,2.49-4.25,2.55-.53.06.17.07,0,0Z"/>
      <g>
        <path class="cls-4" d="M38,50.25c-.16.11-.67.36-1.42.7.8-.23,1.33-.47,1.42-.7Z"/>
        <path class="cls-4" d="M45.46,28.15c-3.45,1.12,1.93,6.5.66,7.37-.87-.36-1.54-.97-2.02-1.82.45,3.73-.36,6.9,1.42,10.36-6.46-3.46-13.33,3.37-12.44,3.14-.07,0-.54.21-1.74.8,0,.02.01.03.05.03,1.24.72,2.65.6,4.2-.37-.33.3,1.47-1.4.57-1.13,0,0-3.34.28-3.34.28-.71.18-22.46,7.04-19.59,9.97.8.82,1.23.09,3.25,1.16,1.33.7,3.58-.14,4.9.69.73.46-2.88-1.85,15.2-7.67-.29.08-.61.17-.97.25,4.59-1.28,9.1-2.81,10.12-3.2,0,0-.02,0-.03,0,.06-.01.07-.01.03,0,5.03-1.48,4.73-7.58,5-12.21.14-2.41,1.25-4.13,3.14-8.78.25-1.54.51-3.07.78-4.61-2.97,1.45-5.32,4.48-9.19,5.74Z"/>
      </g>
      <path class="cls-4" d="M74.28,106.07c.03.1-.14,2.16-.97,1.1.32-.37.65-.73.97-1.1.12.44-.32.37,0,0Z"/>
      <path class="cls-4" d="M69.35,106.7c-.9.25-1.23-.01-.97-.8-.18.21.94.69.97.8-.35.26-.04-.15,0,0Z"/>
      <path class="cls-4" d="M73.31,107.17c.88.09-1.52,1.53,0,0,.1.01-.19.19,0,0Z"/>
      <path class="cls-4" d="M68.38,105.89c.21.67-.06,1.01-.79,1-1.51-.28.42-1.06.79-1,0,.24-.29-.05,0,0Z"/>
      <path class="cls-4" d="M69.03,102.99c.7.38.68.79-.05,1.25-.6-.39-.58-.81.05-1.25.33.04-.34.1,0,0Z"/>
      <path class="cls-4" d="M62.51,105.78c-1.21.02.58-1.02,0,0-.23,0,.06-.11,0,0Z"/>
      <polygon class="cls-1" points="51.52 12.9 55.4 22.41 44.56 28.58 40.58 20.32 43.88 11.84 51.52 12.9"/>
      <polygon class="cls-1" points="70.4 68.73 77.11 81.48 58.34 89.76 51.46 78.67 57.17 67.31 70.4 68.73"/>
      <polygon class="cls-3" points="77.11 81.48 72.16 102.2 59.5 108.27 56 100.25 58.34 89.76 77.11 81.48"/>
      <polygon class="cls-5" points="58.34 89.76 56 100.25 61.6 110.46 28.92 110.46 51.46 78.67 58.34 89.76"/>
      <polygon class="cls-5" points="45.65 73.9 42.87 93.49 42.7 109.89 31.49 110.41 33.81 69.57 45.65 73.9"/>
      <polygon class="cls-5" points="60.6 61.93 74.3 67.15 70.4 68.73 57.17 67.31 37.86 67.31 60.6 61.93"/>
      <polygon class="cls-7" points="45.14 64.75 57.17 67.31 54.62 74.72 48.03 82.36 39.62 68.94 45.14 64.75"/>
      <polygon class="cls-7" points="43.03 96.38 56 100.25 49.89 110.28 38.8 110.28 14.7 110.41 43.03 96.38"/>
      <polygon class="cls-7" points="77.11 81.48 77.92 110.46 61.6 110.46 59.5 108.27 72.16 102.2 77.11 81.48"/>
      <polygon class="cls-7" points="12.3 54.51 43.6 50.25 18.82 69.28 1.62 63.11 4.58 57.37 12.3 54.51"/>
      <polygon class="cls-6" points="25.38 50.95 49.58 49.34 9.81 60.52 4.58 57.37 10.94 55.12 25.38 50.95"/>
      <polyline class="cls-1" points="22.29 11.84 26.02 13.4 26.89 19.13 25.14 22.41 20.22 17.02"/>
      <polygon class="cls-3" points="20.72 18.91 21.52 20.21 22.63 20.9 18.22 22 18.12 20.32 20.72 18.91"/>
      <polygon class="cls-3" points="21.72 21.72 22.52 22.19 21.92 22.6 19.22 22.84 18.5 22.47 21.72 21.72"/>
      <polygon class="cls-1" points="17.77 11.09 22.29 11.84 19.7 13.75 15.52 15.74 14.7 14.21 17.77 11.09"/>
      <polygon class="cls-1" points="16.21 5.23 26.59 7.55 19.21 11.09 13.16 12.47 13.14 8.35 16.21 5.23"/>
      <polygon class="cls-1" points="16.14 1.15 21.92 0 21.34 6.37 13.14 8.35 13.09 4 16.14 1.15"/>
      <polygon class="cls-3" points="19.21 7.17 21.52 8.19 22.29 11.84 17.77 11.09 17.81 9.55 19.21 7.17"/>
      <polygon class="cls-9" points="14.89 9.98 17.81 9.55 17.77 11.09 14.7 14.21 13.16 12.47 14.89 9.98"/>
      <polygon class="cls-3" points="16.14 1.15 19.21 .54 21.34 6.37 19.21 7.17 14.89 9.98 16.14 1.15"/>
      <polygon class="cls-3" points="11.94 15.74 13.16 12.47 14.7 14.21 15.52 15.74 12.96 17.12 11.94 15.74"/>
      <polygon class="cls-9" points="14.37 18.65 16.14 16.03 17.27 20.32 17.03 22.28 15.25 20.32 14.37 18.65"/>
      <polygon class="cls-9" points="14.46 31.67 16.3 23.46 19.45 34.34 22.04 43.52 19 39.57 14.46 31.67"/>
      <polygon class="cls-9" points="23.63 7.17 25.52 9.84 26.02 13.4 22.29 11.84 21.52 8.19 23.63 7.17"/>
      <polygon class="cls-3" points="26.9 12.34 28.68 13.78 28.68 16.03 26.89 19.13 26.02 13.4 26.9 12.34"/>
      <polygon class="cls-3" points="30.12 14.47 42.47 15.47 41.33 18.35 33.81 17.66 29.64 15.74 30.12 14.47"/>
      <polygon class="cls-9" points="29.97 12.34 43.69 12.34 42.47 15.47 30.12 14.47 29.2 14.51 29.97 12.34"/>
      <polygon class="cls-3" points="33.56 20.59 41.33 18.35 40.58 20.32 34.01 22.83 26.59 22.41 33.56 20.59"/>
      <polygon class="cls-9" points="27.58 35.76 27.58 24.67 41.02 20.21 41.02 40.54 31.05 42.1 27.58 35.76"/>
      <polygon class="cls-1" points="29.1 17.12 33.81 17.66 41.33 18.35 33.56 20.59 27.93 19.57 29.1 17.12"/>
      <polygon class="cls-3" points="21.92 0 24.95 .61 27.57 5.43 25.52 9.84 23.63 7.17 21.92 0"/>
      <polygon class="cls-8" points="25.52 9.84 27.57 5.43 29.64 11.58 26.9 12.34 26.02 13.4 25.52 9.84"/>
      <polygon class="cls-2" points="16.14 16.03 20.07 18.43 17.27 20.32 17.27 20.32 16.14 16.03 16.14 16.03"/>
      <polygon class="cls-1" points="20.07 55.68 19.45 58.22 13.8 58.67 17.03 53.09 18.75 54.28 20.07 55.68"/>
      <polygon class="cls-6" points="17.03 53.09 13.8 58.67 11.94 56.9 11.94 56.9 14.47 53.99 17.03 53.09"/>
      <polygon class="cls-6" points="25.23 24.27 22.04 29.21 17.91 29 17.63 27.65 20.07 23.12 25.23 24.27"/>
      <polygon class="cls-1" points="26.75 27.32 25.73 26.14 24.56 29.1 22.04 29.1 25.52 23.86 26.75 27.32"/>
      <polygon class="cls-1" points="63.34 51.67 62.53 59.21 49.98 63.3 39.27 64.04 55.45 51.9 63.34 51.67"/>
      <polygon class="cls-1" points="51.26 50.95 55.45 51.9 31.32 65.03 22.42 60.72 33.41 55.68 51.26 50.95"/>
      <polygon class="cls-6" points="22.42 60.72 31.32 65.03 25.08 67.97 24.62 71.25 19.45 65.76 22.42 60.72"/>
      <polygon class="cls-6" points="46.41 91.73 50.21 87.31 44.81 95.73 41.02 102.88 37.67 103.73 46.41 91.73"/>
      <polygon class="cls-1" points="44.81 95.73 50.21 87.31 48.86 97.42 46.13 103.42 41.02 102.88 44.81 95.73"/>
      <polygon class="cls-9" points="48.86 97.42 50.21 87.31 53.02 89.48 51.43 99.4 46.13 103.42 48.86 97.42"/>
      <polygon class="cls-1" points="25.08 67.97 50.21 87.31 46.41 91.73 46.17 86.94 24.62 71.25 25.08 67.97"/>
      <polygon class="cls-3" points="31.32 65.03 55.45 51.9 39.27 64.04 34.6 69.57 31.32 65.03 31.32 65.03"/>
      <polygon class="cls-9" points="62.35 61.74 56.29 65.2 47.1 66.31 49.98 63.3 62.53 59.21 62.35 61.74"/>
      <polygon class="cls-9" points="54.47 18.84 58.21 33.79 57.76 47.34 54.53 36.95 55.4 22.41 54.47 18.84"/>
      <polygon class="cls-5" points="55.4 22.41 54.53 36.95 51.69 48.77 50.79 42.42 53.06 28.58 55.4 22.41"/>
      <polygon class="cls-3" points="42.47 51.9 45.61 52.38 22.55 60.52 19.45 58.22 28.04 55.12 42.47 51.9"/>
      <polygon class="cls-5" points="53.09 13.78 54.47 16.03 55.85 19.16 55.4 22.41 51.52 12.9 53.09 13.78"/>
      <polygon class="cls-3" points="54.53 36.95 57.76 47.34 57.5 51.9 53.95 46.8 54.53 36.95 54.53 36.95"/>
      <polygon class="cls-9" points="54.53 36.95 53.95 46.8 58.2 52.78 51.26 50.95 50.74 45.21 54.53 36.95"/>
      <polygon class="cls-3" points="58.23 34.13 60.82 47.34 63.34 51.67 57.5 51.9 57.76 47.34 58.23 34.13"/>
      <polygon class="cls-9" points="47.1 66.31 41.97 68.69 34.6 69.57 39.27 64.04 49.98 63.3 47.1 66.31"/>
      <polygon class="cls-6" points="44.56 28.58 45.32 33.79 44.17 41.06 39.62 36.95 40.58 20.32 44.56 28.58"/>
      <polygon class="cls-3" points="44.17 41.06 46.13 44.77 41.97 44.09 40.66 42.1 39.62 36.95 44.17 41.06"/>
      <polygon class="cls-6" points="30 52.09 32.25 51.3 20 29.1 17.91 29 25.08 49.03 30 52.09"/>
      <polygon class="cls-1" points="36.9 50.04 26.02 40.29 24.56 29.1 20 29.1 30.49 48.59 36.9 50.04"/>
      <polygon class="cls-3" points="34.17 48.46 33.81 44.87 29.41 40.15 24.56 29.1 25.73 40.54 34.17 48.46"/>
      <polygon class="cls-1" points="46.13 44.77 42.69 47.34 20.07 55.68 18.75 54.28 41.97 44.09 46.13 44.77"/>
      <polygon class="cls-9" points="46.57 47.57 41.97 50.95 19.45 58.22 20.07 55.68 42.69 47.34 46.57 47.57"/>
      <polygon class="cls-3" points="50.79 42.42 50.74 45.21 45.65 49.22 42.69 47.34 46.13 44.77 50.79 42.42"/>
      <polygon class="cls-7" points="50.74 45.21 51.26 50.95 43.8 52.65 43.31 49.96 47.99 48 50.74 45.21"/>
      <polygon class="cls-5" points="43.6 50.25 51.26 50.95 33.41 55.68 22.55 60.52 18.75 58.22 43.6 50.25"/>
      <polygon class="cls-3" points="41.65 44.23 40.18 48.19 31.49 53.09 26.02 53.49 32.4 48.29 41.65 44.23"/>
      <polygon class="cls-3" points="55.4 22.41 53.06 28.58 45.32 33.79 45.32 33.79 44.56 28.58 55.4 22.41"/>
      <polygon class="cls-3" points="43.69 12.34 43.88 11.84 45.65 13.78 43.36 18.91 40.58 20.32 43.69 12.34"/>
      <polygon class="cls-1" points="53.06 28.58 50.79 42.42 46.13 44.77 44.17 41.06 45.32 33.79 53.06 28.58"/>
      <polygon class="cls-9" points="43.88 73.9 47.99 81.17 31.32 65.03 31.32 65.03 39.62 68.38 43.88 73.9"/>
      <polygon class="cls-3" points="47.99 81.17 53.02 89.48 25.08 67.97 25.08 67.97 31.32 65.03 47.99 81.17"/>
      <polygon class="cls-3" points="25.23 61.93 31.32 65.03 26.11 67.49 25.23 61.93 25.23 61.93 25.23 61.93"/>
      <polygon class="cls-6" points=".45 60.24 4.58 57.37 4.9 68.57 3.82 72.14 0 67.49 .45 60.24"/>
      <polygon class="cls-6" points="25.61 92.63 29.41 88.2 26.92 96.81 26.79 106.4 24.4 106.07 25.61 92.63"/>
      <polygon class="cls-1" points="26.92 96.81 29.41 88.2 28.06 98.32 29.83 107.17 26.79 106.4 26.92 96.81"/>
      <polygon class="cls-9" points="28.06 98.32 29.41 88.2 32.22 90.37 32.97 104.6 29.83 107.17 28.06 98.32"/>
      <polygon class="cls-1" points="4.28 68.86 29.41 88.2 25.61 92.63 24.13 89.72 3.82 72.14 4.28 68.86"/>
      <polygon class="cls-9" points="23.08 74.79 27.19 82.06 10.52 65.92 10.52 65.92 18.82 69.28 23.08 74.79"/>
      <polygon class="cls-3" points="27.19 82.06 32.22 90.37 4.28 68.86 4.28 68.86 10.52 65.92 27.19 82.06"/>
      <polygon class="cls-3" points="9.81 60.52 10.52 65.92 4.28 68.86 4.58 61.61 4.58 57.37 9.81 60.52"/>
      <polygon class="cls-1" points="18.7 64.04 17.46 65.67 17.46 61.53 18.7 61.53 18.7 64.04"/>
      <rect class="cls-2" x="10.99" y="59.54" width="1.24" height="4.15"/>
      <polygon class="cls-3" points="13.74 66.43 11.94 64 11.94 59.85 13.18 59.85 13.74 66.43"/>
      <polygon class="cls-6" points="13.74 66.43 12.58 66.31 10.99 63.68 11.94 63.68 13.74 66.43"/>
      <polygon class="cls-3" points="15.62 67.13 13.85 64.38 13.85 60.24 15.09 60.24 15.62 67.13"/>
      <polygon class="cls-3" points="17.23 67.19 16.32 65.75 16.32 61.61 17.55 61.61 17.23 67.19"/>
      <rect class="cls-2" x="12.87" y="60.24" width="1.24" height="4.15"/>
      <rect class="cls-1" x="15.37" y="61.61" width="1.24" height="4.15"/>
      <polygon class="cls-6" points="15.62 67.13 14.1 66.66 12.87 64.38 14.1 64.38 15.62 67.13"/>
      <polygon class="cls-3" points="17.23 67.19 15.71 66.71 15.37 65.76 16.61 65.76 17.23 67.19"/>
      <polygon class="cls-6" points="18.97 61.93 15.52 62.26 13.49 60.95 13.8 58.67 19.45 58.22 18.97 61.93"/>
      <polygon class="cls-2" points="13.8 58.67 13.8 58.67 13.49 60.95 10.63 59.47 11.94 56.9 13.8 58.67"/>
      <rect class="cls-1" x="2.67" y="105.56" width="84.95" height="16.8"/>
      <rect class="cls-3" x="61.97" y="105.56" width="25.65" height="16.8"/>
      <polygon class="cls-6" points="40.66 42.1 41.97 44.09 18.75 54.28 17.03 53.09 36.06 43.13 40.66 42.1"/>
      <polygon class="cls-3" points="27.58 24.67 30.03 23.86 31.93 36.26 28.92 38.98 24.66 29.32 27.58 24.67"/>
      <polygon class="cls-9" points="25.16 27.58 26.41 31.9 29.64 38.22 29.2 39.95 24.56 29.1 25.16 27.58"/>
      <polygon class="cls-3" points="31.05 23.52 38.16 21.24 39.62 35.84 33.72 35.53 31.66 28.98 31.05 23.52"/>
      <polygon class="cls-2" points="20.07 23.12 21.92 23.54 17.91 29 17.63 27.65 18.75 25.57 20.07 23.12"/>
      <polygon class="cls-1" points="27.62 27.93 26.75 29.21 25.52 23.86 26.81 24.75 27.62 27.93"/>
    </g>
  </g>
</svg>